<?xml version="1.0" standalone="no"?>
<!DOCTYPE svg PUBLIC "-//W3C//DTD SVG 20010904//EN"
 "http://www.w3.org/TR/2001/REC-SVG-20010904/DTD/svg10.dtd">
<svg version="1.0" xmlns="http://www.w3.org/2000/svg"
 width="700.000000pt" height="700.000000pt" viewBox="0 0 700.000000 700.000000"
 preserveAspectRatio="xMidYMid meet">
<metadata>
Created by potrace 1.11, written by Peter Selinger 2001-2013
</metadata>
<g transform="translate(0.000000,700.000000) scale(0.100000,-0.100000)"
fill="#000000" stroke="none">
<path d="M1407 6124 c-1 -1 -31 -5 -67 -8 -79 -9 -225 -56 -300 -98 -241 -135
-416 -386 -447 -641 -10 -87 -6 -247 8 -299 6 -24 13 -54 16 -67 12 -70 94
-228 157 -306 124 -152 327 -280 491 -308 17 -3 44 -8 60 -11 45 -9 125 -15
125 -10 0 3 -22 37 -49 77 -111 165 -192 378 -216 567 -4 30 -9 64 -11 75 -6
29 -6 288 0 316 3 13 8 47 11 74 21 180 120 429 226 572 22 29 39 57 39 62 0
8 -35 12 -43 5z"/>
<path d="M3493 5588 c-6 -7 -43 -78 -83 -158 -40 -80 -123 -244 -185 -365 -62
-121 -179 -350 -260 -510 -143 -282 -278 -545 -530 -1040 -67 -132 -202 -397
-300 -590 -98 -192 -208 -408 -245 -480 -37 -71 -163 -319 -280 -550 -117
-231 -216 -423 -219 -428 -4 -4 -187 -7 -407 -7 l-400 0 1 -293 0 -292 2913 0
c1936 0 2913 3 2914 10 0 5 2 137 3 293 l1 283 -220 -1 c-122 0 -303 -1 -403
0 l-182 0 -72 143 c-39 78 -122 241 -184 362 -62 121 -176 346 -255 500 -78
154 -193 379 -255 500 -62 121 -179 351 -260 510 -198 389 -414 814 -545 1070
-119 234 -456 895 -505 993 -24 47 -35 59 -42 50z m120 -1491 c60 -116 190
-372 289 -567 99 -195 229 -449 288 -565 243 -475 347 -680 545 -1070 114
-225 212 -416 218 -422 7 -10 -18 -13 -119 -13 -1914 -1 -2778 0 -2782 4 -2 3
26 65 63 138 75 147 264 519 445 873 262 514 483 946 845 1658 50 97 92 177
95 177 3 0 54 -96 113 -213z"/>
</g>
</svg>
